<svg xmlns="http://www.w3.org/2000/svg" fill="none" height="140" viewBox="0 0 140 140" width="140"><mask id="a" fill="#fff"><path d="M136 0H4C2 0 0 2 0 4v132c0 2 2 4 4 4h132c2 0 4-2 4-4V4c0-2-2-4-4-4z"/></mask><path fill="#66BF3C" fill-opacity=".3" stroke="#66BF3C" stroke-dasharray="4 2" stroke-width="2" d="M136 0H4C2 0 0 2 0 4v132c0 2 2 4 4 4h132c2 0 4-2 4-4V4c0-2-2-4-4-4z" mask="url(#a)"/><path fill="#fff" fill-opacity=".3" fill-rule="evenodd" stroke="#66BF3C" d="M21 18h97c2 0 4 2 4 4v97c0 2-2 4-4 4H21c-2 0-4-2-4-4V22c0-2 2-4 4-4z" clip-rule="evenodd"/></svg>
